Coordinates
version=1
nRows=9
nColumns=63
inDegrees=yes

Units are S.I. units (second, meters, Newtons, ...)
If the header above contains a line with 'inDegrees', this indicates whether rotational values are in degrees (yes) or radians (no).

endheader
time	pelvis_tilt	pelvis_list	pelvis_rotation	pelvis_tx	pelvis_ty	pelvis_tz	hip_flexion_r	hip_adduction_r	hip_rotation_r	knee_angle_r	knee_angle_r_beta	ankle_angle_r	subtalar_angle_r	mtp_angle_r	hip_flexion_l	hip_adduction_l	hip_rotation_l	knee_angle_l	knee_angle_l_beta	ankle_angle_l	subtalar_angle_l	mtp_angle_l	L5_S1_Flex_Ext	L5_S1_Lat_Bending	L5_S1_axial_rotation	L4_L5_Flex_Ext	L4_L5_Lat_Bending	L4_L5_axial_rotation	L3_L4_Flex_Ext	L3_L4_Lat_Bending	L3_L4_axial_rotation	L2_L3_Flex_Ext	L2_L3_Lat_Bending	L2_L3_axial_rotation	L1_L2_Flex_Ext	L1_L2_Lat_Bending	L1_L2_axial_rotation	L1_T12_Flex_Ext	L1_T12_Lat_Bending	L1_T12_axial_rotation	Abs_r3	Abs_r2	Abs_r1	Abs_t1	Abs_t2	neck_flexion	neck_bending	neck_rotation	arm_flex_r	arm_add_r	arm_rot_r	elbow_flex_r	pro_sup_r	wrist_flex_r	wrist_dev_r	arm_flex_l	arm_add_l	arm_rot_l	elbow_flex_l	pro_sup_l	wrist_flex_l	wrist_dev_l
      6.52542373	     11.37177742	     -9.29417659	     94.68066678	      0.19987145	      0.84710950	      0.63517512	      4.70132831	     10.60757248	    -23.35816743	      0.66035402	      0.01152535	     -6.94133927	    -14.43086224	      0.00000000	      4.52219074	    -12.42009114	     22.80079873	      0.67982624	      0.01186521	      9.03088525	     -2.35960659	      0.00000000	     -0.03302916	      1.53712680	     -1.14821973	     -0.06133844	      2.04437864	     -1.21998346	     -0.05426360	      3.73737009	     -1.21998346	     -0.03774902	      3.73737009	     -1.00469226	     -0.03067087	      3.13450896	     -0.93292853	     -0.01887286	      2.38100941	     -0.86116480	     -0.23592395	     17.38828575	     -6.38605367	      0.00000000	      0.00000000	     19.33731319	     -8.28876768	     20.25221516	     16.20931820	    -15.57524864	    154.10192689	      9.65667073	      5.17187822	     -4.89368679	    -11.19674226	      4.11145287	    -12.51089141	     16.88328225	     49.17719416	     89.20837929	    -21.45227546	     -0.87001700
      6.54237288	     11.15084225	     -9.22026184	     94.44587868	      0.20056117	      0.84712194	      0.63401303	      4.51436272	     10.43188262	    -23.60054222	      0.70652389	      0.01233117	     -7.21006395	    -14.22827341	      0.00000000	      4.25362598	    -12.23759304	     21.79118056	      0.66117630	      0.01153970	      9.09308288	     -1.25752007	      0.00000000	     -0.02965229	      1.51272972	     -1.09020158	     -0.05506726	      2.01193053	     -1.15833918	     -0.04871574	      3.67805104	     -1.15833918	     -0.03388960	      3.67805104	     -0.95392638	     -0.02753511	      3.08475844	     -0.88578878	     -0.01694332	      2.34321834	     -0.81765118	     -0.21180333	     17.11230113	     -6.06337413	      0.00000000	      0.00000000	     19.83358561	     -8.10557902	     20.42995549	     16.54673931	    -15.63601533	    152.99647482	     10.63501473	      6.31918216	     -6.06766382	    -11.25513728	      3.85074576	    -12.56136945	     16.60681338	     49.46976528	     89.18833103	    -20.12667854	     -0.13350994
      6.55932203	     10.93833935	     -9.20693262	     94.27296528	      0.20123308	      0.84703640	      0.63319355	      4.43470029	     10.24440310	    -25.46453478	      0.80326351	      0.01401959	     -7.14309985	    -12.31716177	      0.00000000	      4.07577645	    -12.05517855	     21.79730351	      0.62580741	      0.01092240	      8.75994958	     -1.59783429	      0.00000000	     -0.02263954	      1.48738811	     -1.00513080	     -0.04204390	      1.97822619	     -1.06795148	     -0.03719451	      3.61643546	     -1.06795148	     -0.02587474	      3.61643546	     -0.87948945	     -0.02102308	      3.03308184	     -0.81666878	     -0.01293624	      2.30396419	     -0.75384810	     -0.16171200	     16.82563181	     -5.59023599	      0.00000000	      0.00000000	     20.15858183	     -8.05486748	     20.39840058	     16.52617396	    -15.55711310	    153.76594800	     10.80670555	      6.18579314	     -6.63351311	    -11.23734556	      3.79094254	    -12.69792382	     16.72776500	     49.77253048	     89.16685025	    -18.96733218	      0.75371644
      6.57627119	     10.69873714	     -9.29284308	     93.91128020	      0.20201059	      0.84680541	      0.63252464	      4.43617602	     10.03197467	    -26.01661344	      0.89073271	      0.01554622	     -7.70616859	    -11.88332932	      0.00000000	      3.97940581	    -11.84545509	     19.84542650	      0.64353426	      0.01123179	      8.86497457	      0.60201358	      0.00000000	     -0.00811158	      1.45787424	     -0.87902786	     -0.01506401	      1.93897274	     -0.93396710	     -0.01332651	      3.54467542	     -0.93396710	     -0.00927072	      3.54467542	     -0.76914938	     -0.00753241	      2.97289715	     -0.71421013	     -0.00463496	      2.25824719	     -0.65927089	     -0.05794019	     16.49176496	     -4.88888924	      0.00000000	      0.00000000	     20.26214387	     -8.00180742	     20.21927185	     16.26644849	    -15.46761412	    154.51800996	     10.61186877	      6.69089792	     -7.04886017	    -11.22238099	      3.79350571	    -12.84580717	     17.04011594	     50.03806008	     89.15145283	    -18.39642715	      1.42624318
      6.59322034	     10.49188242	     -9.33422454	     93.52337467	      0.20277831	      0.84669841	      0.63231123	      4.39686876	      9.86646353	    -26.57752417	      0.93994143	      0.01640507	     -8.79019586	    -11.55041182	      0.00000000	      3.84093150	    -11.67182897	     18.52078542	      0.63136040	      0.01101932	      8.79389949	      1.72907417	      0.00000000	     -0.01187749	      1.43251148	     -0.73627455	     -0.02205769	      1.90524027	     -0.78229171	     -0.01951353	      3.48300842	     -0.78229171	     -0.01357479	      3.48300842	     -0.64424023	     -0.01102944	      2.92117742	     -0.59822308	     -0.00678680	      2.21896029	     -0.55220592	     -0.08483974	     16.20485640	     -4.09493819	      0.00000000	      0.00000000	     20.00889309	     -8.00592734	     19.97006368	     15.79980137	    -15.32241634	    155.95950507	      9.94014346	      5.79029618	     -6.77960691	    -11.22742288	      3.90813244	    -12.94024604	     17.26473406	     50.43880197	     89.15125067	    -17.88025079	      2.23181003
      6.61016949	     10.29378054	     -9.40642940	     93.07243147	      0.20339125	      0.84657823	      0.63210597	      4.35952424	      9.70422201	    -26.41564634	      0.95077313	      0.01659412	    -10.36152985	    -12.12206990	      0.00000000	      3.73794411	    -11.49132364	     16.77887858	      0.64637187	      0.01128132	      8.95788795	      3.35396896	      0.00000000	     -0.01122016	      1.41115779	     -0.58232581	     -0.02083695	      1.87683987	     -0.61872117	     -0.01843359	      3.43108906	     -0.61872117	     -0.01282352	      3.43108906	     -0.50953508	     -0.01041904	      2.87763297	     -0.47313972	     -0.00641120	      2.18588342	     -0.43674436	     -0.08014445	     15.96329919	     -3.23872145	      0.00000000	      0.00000000	     19.63651502	     -7.86067970	     19.72967045	     15.23587970	    -15.26009973	    157.09097199	      9.24544864	      5.04304302	     -6.17489732	    -11.24179412	      4.10374743	    -12.94479910	     17.58269239	     50.75872432	     89.14965554	    -17.81375337	      2.84631008
      6.62711864	     10.22753937	     -9.47689675	     92.93532865	      0.20349349	      0.84639089	      0.63203546	      4.36009982	      9.64294635	    -27.01493266	      0.96422347	      0.01682887	    -11.77059788	    -12.15839169	      0.00000000	      3.72550049	    -11.42082536	     16.69868418	      0.63832023	      0.01114079	      8.98630207	      3.23241217	      0.00000000	     -0.00392057	      1.40692224	     -0.50475566	     -0.00728089	      1.87120658	     -0.53630289	     -0.00644111	      3.42079074	     -0.53630289	     -0.00448082	      3.42079074	     -0.44166120	     -0.00364064	      2.86899584	     -0.41011397	     -0.00224021	      2.17932255	     -0.37856674	     -0.02800425	     15.91538579	     -2.80729955	      0.00000000	      0.00000000	     19.08537348	     -7.50041803	     19.67047751	     14.86599660	    -15.36542903	    156.87299827	      9.12169714	      4.98403962	     -5.87053265	    -11.33072317	      4.20276826	    -12.75788732	     17.53228835	     51.13595440	     89.16740433	    -17.94131035	      3.14104428
      6.64406780	     10.16044494	     -9.48619224	     93.03961907	      0.20323120	      0.84616762	      0.63212054	      4.29006626	      9.55773729	    -27.05971339	      0.99488192	      0.01736397	    -11.97298772	    -12.15374826	      0.00000000	      3.74137930	    -11.32632913	     16.73128284	      0.64231431	      0.01121050	      8.98670256	      3.24720198	      0.00000000	     -0.00846718	      1.40812302	     -0.47758830	     -0.01572439	      1.87280361	     -0.50743757	     -0.01391072	      3.42371030	     -0.50743757	     -0.00967713	      3.42371030	     -0.41788976	     -0.00786262	      2.87144445	     -0.38804049	     -0.00483814	      2.18118255	     -0.35819122	     -0.06048019	     15.92896917	     -2.65620284	      0.00000000	      0.00000000	     18.91104287	     -7.49327414	     19.70432081	     14.68270147	    -15.47171614	    156.88528502	      9.21992553	      4.99212110	     -5.80882273	    -11.32964391	      4.37292854	    -12.59697984	     17.51150547	     51.51640027	     89.15366497	    -17.96371691	      3.08802295
      6.66101695	     10.27396666	     -9.45616202	     92.69507623	      0.20332445	      0.84626995	      0.63171421	      4.26498725	      9.63889256	    -27.83536920	      1.20554836	      0.02104079	    -14.19557479	    -12.65795249	      0.00000000	      3.62738225	    -11.42702997	     17.63255964	      0.81237531	      0.01417862	      8.94775746	      1.94776278	      0.00000000	     -0.00689439	      1.43373865	     -0.42052788	     -0.01280356	      1.90687240	     -0.44681087	     -0.01132679	      3.48599215	     -0.44681087	     -0.00787959	      3.48599215	     -0.36796190	     -0.00640213	      2.92367985	     -0.34167890	     -0.00393945	      2.22086116	     -0.31539591	     -0.04924591	     16.21873832	     -2.33884992	      0.00000000	      0.00000000	     17.90031895	     -6.79685899	     20.14015602	     14.75190063	    -16.07736074	    151.72300011	     10.32748326	      8.15646784	     -5.42864327	    -11.35451517	      4.19025061	    -12.27687688	     17.02119189	     52.20941146	     88.88989964	    -18.20246133	      3.86351004
